<svg width="30" height="20" viewBox="0 0 30 20" fill="none" xmlns="http://www.w3.org/2000/svg">
<path fill-rule="evenodd" clip-rule="evenodd" d="M2 0C0.895431 0 0 0.895431 0 2C0 3.10457 0.89543 4 2 4H28C29.1046 4 30 3.10457 30 2C30 0.895431 29.1046 0 28 0H2ZM0 10C0 8.89543 0.895431 8 2 8H28C29.1046 8 30 8.89543 30 10C30 11.1046 29.1046 12 28 12H2C0.89543 12 0 11.1046 0 10ZM0 18C0 16.8954 0.895431 16 2 16H28C29.1046 16 30 16.8954 30 18C30 19.1046 29.1046 20 28 20H2C0.89543 20 0 19.1046 0 18Z" fill="#F13420"/>
</svg>
