<svg width="18" height="19" viewBox="0 0 18 19" fill="none" xmlns="http://www.w3.org/2000/svg">
<path fill-rule="evenodd" clip-rule="evenodd" d="M13.788 18.4278C14.0295 18.6298 14.3407 18.6803 14.6182 18.5563C14.8957 18.4314 15.0997 18.1514 15.1612 17.8122C15.8129 14.1944 17.3939 5.03734 17.9871 1.74641C18.0321 1.49837 17.9571 1.24059 17.7921 1.07494C17.6271 0.909283 17.3984 0.861447 17.1944 0.950918C14.0497 2.32576 4.3652 6.61769 0.406789 8.34776C0.155545 8.4576 -0.00795143 8.74285 0.000298383 9.05555C0.00929818 9.36914 0.187794 9.6411 0.445038 9.73234C2.22025 10.3595 4.55044 11.2321 4.55044 11.2321C4.55044 11.2321 5.63942 15.1165 6.20716 17.092C6.2784 17.34 6.44265 17.5349 6.6594 17.6022C6.87539 17.6687 7.10639 17.5987 7.26763 17.4188C8.17961 16.4019 9.58958 14.8295 9.58958 14.8295C9.58958 14.8295 12.2685 17.1496 13.788 18.4278ZM5.53067 10.7413L6.78989 15.6472L7.06964 12.5405C7.06964 12.5405 11.9348 7.35738 14.7082 4.40307C14.7892 4.31626 14.8005 4.17098 14.733 4.06911C14.6662 3.96723 14.5432 3.94332 14.451 4.01241C11.2365 6.43698 5.53067 10.7413 5.53067 10.7413Z" fill="#F13420"/>
</svg>
