<svg width="40" height="40" viewBox="0 0 40 40" fill="none" xmlns="http://www.w3.org/2000/svg">
<path fill-rule="evenodd" clip-rule="evenodd" d="M10 0C4.47715 0 0 4.47715 0 10V30C0 35.5228 4.47715 40 10 40H30C35.5228 40 40 35.5228 40 30V10C40 4.47715 35.5228 0 30 0H10ZM14.0711 22.5563C16.4142 24.8995 20.2132 24.8995 22.5564 22.5563C24.8995 20.2132 24.8995 16.4142 22.5564 14.0711C20.2132 11.7279 16.4142 11.7279 14.0711 14.0711C11.7279 16.4142 11.7279 20.2132 14.0711 22.5563ZM12.6569 23.9706C15.542 26.8557 20.0827 27.0765 23.2212 24.6327C23.2347 24.648 23.2488 24.663 23.2635 24.6777L27.5061 28.9203C27.8966 29.3108 28.5298 29.3108 28.9203 28.9203C29.3108 28.5298 29.3108 27.8966 28.9203 27.5061L24.6777 23.2635C24.663 23.2488 24.6481 23.2347 24.6328 23.2212C27.0765 20.0827 26.8558 15.542 23.9706 12.6569C20.8464 9.53266 15.7811 9.53266 12.6569 12.6569C9.53267 15.781 9.53267 20.8464 12.6569 23.9706Z" fill="#F13420"/>
</svg>
