<svg width="26" height="26" viewBox="0 0 26 26" fill="none" xmlns="http://www.w3.org/2000/svg">
<path fill-rule="evenodd" clip-rule="evenodd" d="M18.9588 3.25282C14.6217 -1.08427 7.5899 -1.08427 3.25282 3.25282C-1.08427 7.5899 -1.08427 14.6217 3.25282 18.9588C7.11719 22.8232 13.1199 23.2442 17.451 20.2227L22.6543 25.426C23.4197 26.1913 24.6606 26.1913 25.426 25.426C26.1913 24.6606 26.1913 23.4197 25.426 22.6543L20.2227 17.451C23.2442 13.1199 22.8232 7.11719 18.9588 3.25282ZM6.02446 6.02446C8.83081 3.21811 13.3808 3.21811 16.1872 6.02446C18.9935 8.83081 18.9935 13.3808 16.1872 16.1872C13.3808 18.9935 8.83081 18.9935 6.02446 16.1872C3.21811 13.3808 3.21811 8.83081 6.02446 6.02446Z" fill="#F13420"/>
</svg>
