<svg width="21" height="21" viewBox="0 0 21 21" fill="none" xmlns="http://www.w3.org/2000/svg">
<path fill-rule="evenodd" clip-rule="evenodd" d="M13.5564 13.5563C11.2132 15.8995 7.41423 15.8995 5.07108 13.5563C2.72793 11.2132 2.72793 7.41421 5.07108 5.07107C7.41423 2.72792 11.2132 2.72792 13.5564 5.07107C15.8995 7.41421 15.8995 11.2132 13.5564 13.5563ZM14.2212 15.6327C11.0827 18.0765 6.54205 17.8557 3.65687 14.9706C0.532672 11.8464 0.532672 6.78105 3.65687 3.65685C6.78106 0.53266 11.8464 0.53266 14.9706 3.65685C17.8558 6.54204 18.0765 11.0827 15.6328 14.2212C15.6481 14.2347 15.663 14.2488 15.6777 14.2635L19.9203 18.5061C20.3108 18.8966 20.3108 19.5298 19.9203 19.9203C19.5298 20.3108 18.8966 20.3108 18.5061 19.9203L14.2635 15.6777C14.2488 15.663 14.2347 15.648 14.2212 15.6327Z" fill="#F13420" stroke="#F13420" stroke-linecap="round"/>
</svg>
