<svg width="30" height="30" viewBox="0 0 30 30" fill="none" xmlns="http://www.w3.org/2000/svg">
<path d="M9.233 10.8967C7.19069 11.5715 5.0999 12.663 3.01251 14.2896C2.36091 14.7974 2.3325 15.7572 2.91663 16.3414L4.33508 17.7598C4.79913 18.2239 5.51944 18.3125 6.08218 17.9749L8.53864 16.501C8.96942 16.2425 9.233 15.777 9.233 15.2747L9.233 10.8967ZM9.233 10.8967C13.0815 9.62507 16.7578 9.83322 19.9146 10.7291M19.9146 10.7291C22.8009 11.5481 25.253 12.942 27.0055 14.3054C27.6436 14.8019 27.6575 15.7366 27.0858 16.3083L25.6737 17.7203C25.1916 18.2024 24.4363 18.2772 23.8691 17.899L20.5515 15.6873C20.1536 15.4221 19.9146 14.9755 19.9146 14.4973V10.7291Z" stroke="#FBFBFB" stroke-width="2"/>
</svg>
