<svg width="24" height="25" viewBox="0 0 24 25" fill="none" xmlns="http://www.w3.org/2000/svg">
<path d="M7.3864 9.3173C5.75255 9.85714 4.07992 10.7304 2.41001 12.0317C1.88873 12.4379 1.866 13.2058 2.33331 13.6731L3.46807 14.8078C3.8393 15.1791 4.41555 15.25 4.86574 14.9799L6.83091 13.8008C7.17553 13.594 7.3864 13.2216 7.3864 12.8197L7.3864 9.3173ZM7.3864 9.3173C10.4652 8.30003 13.4062 8.46655 15.9317 9.18322M15.9317 9.18322C18.2407 9.83846 20.2024 10.9536 21.6044 12.0443C22.1149 12.4415 22.126 13.1892 21.6686 13.6466L20.539 14.7763C20.1533 15.1619 19.5491 15.2217 19.0953 14.9192L16.4412 13.1498C16.1229 12.9376 15.9317 12.5804 15.9317 12.1978V9.18322Z" stroke="#FBFBFB" stroke-width="2"/>
</svg>
