<svg width="20" height="20" viewBox="0 0 20 20" fill="none" xmlns="http://www.w3.org/2000/svg">
<path d="M10.6741 14.5255C11.9929 15.1892 13.5367 15.6747 15.3378 15.8999C15.9109 15.9716 16.3996 15.511 16.3996 14.9334L16.3996 13.5808C16.3996 13.1219 16.0873 12.7219 15.6421 12.6106L13.7489 12.1373C13.4081 12.0521 13.0476 12.152 12.7993 12.4004L10.6741 14.5255ZM10.6741 14.5255C8.1816 13.271 6.49325 11.38 5.39254 9.40708M5.39254 9.40708C4.38965 7.60949 3.8746 5.7439 3.6836 4.22982C3.61285 3.66892 4.06816 3.20001 4.6335 3.20001L5.9798 3.20001C6.45649 3.20001 6.8669 3.53647 6.96039 4.0039L7.49465 6.67522C7.56022 7.00308 7.4576 7.34202 7.22118 7.57844L5.39254 9.40708Z" stroke="#FBFBFB" stroke-width="2"/>
</svg>
