<svg width="16" height="16" viewBox="0 0 16 16" fill="none" xmlns="http://www.w3.org/2000/svg">
<path d="M2 9V6.99999C2 6.44771 2.44772 5.99999 3 5.99999H4.31589C4.54296 5.99999 4.76327 5.92271 4.94058 5.78086L6.37531 4.63308C7.03007 4.10927 8 4.57545 8 5.41395V10.586C8 11.4245 7.03007 11.8907 6.37531 11.3669L4.94058 10.2191C4.76327 10.0773 4.54296 10 4.31589 10H3C2.44772 10 2 9.55228 2 9Z" stroke="#FBFBFB" stroke-width="2" stroke-linecap="round" stroke-linejoin="round"/>
<path d="M10.5534 10.1426C11.0289 9.57594 11.3024 8.86718 11.3308 8.12797C11.3592 7.38875 11.1409 6.66109 10.7103 6.0596" stroke="#FBFBFB" stroke-width="2" stroke-linecap="round" stroke-linejoin="round"/>
<path d="M12.5963 11.8567C13.4937 10.7872 13.9901 9.43808 13.9999 8.04189C14.0096 6.6457 13.5321 5.28982 12.6497 4.20783" stroke="#FBFBFB" stroke-width="2" stroke-linecap="round" stroke-linejoin="round"/>
</svg>
